<svg xmlns="http://www.w3.org/2000/svg" width="90" height="30" fill="none" viewBox="0 0 90 30"><rect width="90" height="30" fill="#EEE"/><rect width="89" height="29" x=".5" y=".5" fill="#FFCB36" stroke="#374051"/><line x2="90" y1="9.5" y2="9.5" stroke="#374051"/><line x2="90" y1="19.837" y2="19.837" stroke="#374051"/><line x1="8.5" x2="8.5" y1="30" y2=".638" stroke="#374051"/><line x1="18.5" x2="18.5" y1="29.972" y2=".61" stroke="#374051"/><line x1="28.5" x2="28.5" y1="30" y2=".638" stroke="#374051"/><line x1="38.5" x2="38.5" y1="30" y2=".638" stroke="#374051"/><line x1="48.5" x2="48.5" y1="30" y2=".638" stroke="#374051"/><line x1="58.5" x2="58.5" y1="30" y2=".638" stroke="#374051"/><line x1="68.5" x2="68.5" y1="30" y2=".638" stroke="#374051"/><line x1="78.5" x2="78.5" y1="30" y2=".638" stroke="#374051"/><line x2="12.728" y1="-.5" y2="-.5" stroke="#374051" transform="matrix(0.707106 -0.707108 0.707106 0.707108 29 29)"/><line x2="12.728" y1="-.5" y2="-.5" stroke="#374051" transform="matrix(-0.707106 -0.707108 0.707106 -0.707108 37.9999 29)"/><line x2="12.728" y1="-.5" y2="-.5" stroke="#374051" transform="matrix(0.707106 -0.707108 0.707106 0.707108 10 10)"/><line x2="12.728" y1="-.5" y2="-.5" stroke="#374051" transform="matrix(-0.707106 -0.707108 0.707106 -0.707108 18.9999 10)"/><line x2="12.728" y1="-.5" y2="-.5" stroke="#374051" transform="matrix(0.707106 -0.707108 0.707106 0.707108 70 19)"/><line x2="12.728" y1="-.5" y2="-.5" stroke="#374051" transform="matrix(-0.707106 -0.707108 0.707106 -0.707108 78.9999 19)"/></svg>