<svg width="90" height="30" viewBox="0 0 90 30" fill="none" xmlns="http://www.w3.org/2000/svg">
<rect width="90" height="30" fill="#EEEEEE"/>
<rect x="0.5" y="0.5" width="89" height="29" fill="#374051" stroke="#FFCB36"/>
<line y1="9.50001" x2="90" y2="9.50001" stroke="#FFCB36"/>
<line y1="19.837" x2="90" y2="19.837" stroke="#FFCB36"/>
<line x1="8.5" y1="30" x2="8.5" y2="0.637707" stroke="#FFCB36"/>
<line x1="18.5" y1="29.9723" x2="18.5" y2="0.609997" stroke="#FFCB36"/>
<line x1="28.5" y1="30" x2="28.5" y2="0.637707" stroke="#FFCB36"/>
<line x1="38.5" y1="30" x2="38.5" y2="0.637707" stroke="#FFCB36"/>
<line x1="48.5" y1="30" x2="48.5" y2="0.637707" stroke="#FFCB36"/>
<line x1="58.5" y1="30" x2="58.5" y2="0.637707" stroke="#FFCB36"/>
<line x1="68.5" y1="30" x2="68.5" y2="0.637707" stroke="#FFCB36"/>
<line x1="78.5" y1="30" x2="78.5" y2="0.637707" stroke="#FFCB36"/>
<line y1="-0.5" x2="12.7279" y2="-0.5" transform="matrix(0.707106 -0.707108 0.707106 0.707108 29 29)" stroke="#FFCB36"/>
<line y1="-0.5" x2="12.7279" y2="-0.5" transform="matrix(-0.707106 -0.707108 0.707106 -0.707108 37.9999 29)" stroke="#FFCB36"/>
<line y1="-0.5" x2="12.7279" y2="-0.5" transform="matrix(0.707106 -0.707108 0.707106 0.707108 10 10)" stroke="#FFCB36"/>
<line y1="-0.5" x2="12.7279" y2="-0.5" transform="matrix(-0.707106 -0.707108 0.707106 -0.707108 18.9999 10)" stroke="#FFCB36"/>
<line y1="-0.5" x2="12.7279" y2="-0.5" transform="matrix(0.707106 -0.707108 0.707106 0.707108 70 19)" stroke="#FFCB36"/>
<line y1="-0.5" x2="12.7279" y2="-0.5" transform="matrix(-0.707106 -0.707108 0.707106 -0.707108 78.9999 19)" stroke="#FFCB36"/>
<path d="M23.4631 6.79143C23.9414 6.884 24.2963 7.046 24.5277 7.27743C24.7746 7.50886 24.898 7.77886 24.898 8.08743C24.898 8.59657 24.7514 8.96686 24.4583 9.19829C24.1806 9.42971 23.7331 9.52229 23.116 9.476C21.7274 9.368 20.6397 9.29857 19.8529 9.26771C19.0814 9.22143 18.0631 9.19057 16.798 9.17514C16.2271 12.014 15.7026 14.8683 15.2243 17.738C15.0546 18.7871 14.8771 20.006 14.692 21.3946C14.5069 22.7677 14.3834 23.8786 14.3217 24.7271C14.2909 25.1746 14.1057 25.5217 13.7663 25.7686C13.4269 26 13.018 26.1157 12.5397 26.1157C12.0306 26.1157 11.6371 25.9923 11.3594 25.7454C11.0817 25.4986 10.9429 25.1746 10.9429 24.7734C10.9429 24.4031 10.9969 23.7937 11.1049 22.9451C11.2283 22.0811 11.3671 21.1786 11.5214 20.2374C11.6911 19.2963 11.8223 18.4786 11.9149 17.7843C12.0846 16.6117 12.2774 15.4469 12.4934 14.2897C12.7094 13.1326 12.9254 12.0371 13.1414 11.0034C13.1877 10.772 13.2417 10.5097 13.3034 10.2166C13.3651 9.908 13.4346 9.56857 13.5117 9.19829C11.9997 9.24457 10.8117 9.368 9.94771 9.56857C9.08371 9.76914 8.46657 10.0546 8.09629 10.4249C7.74143 10.7797 7.564 11.2426 7.564 11.8134C7.564 12.338 7.71829 12.8394 8.02686 13.3177C8.08857 13.4257 8.11943 13.5414 8.11943 13.6649C8.11943 13.958 7.942 14.2357 7.58714 14.498C7.24771 14.7449 6.89286 14.8683 6.52257 14.8683C6.26029 14.8683 6.04429 14.7911 5.87457 14.6369C5.566 14.3746 5.31143 14.0043 5.11086 13.526C4.91029 13.0323 4.81 12.4769 4.81 11.8597C4.81 10.5483 5.23429 9.49914 6.08286 8.71229C6.94686 7.91 8.25057 7.32371 9.994 6.95343C11.7529 6.58314 14.0054 6.398 16.7517 6.398C18.4489 6.398 19.7989 6.42886 20.8017 6.49057C21.82 6.55229 22.7071 6.65257 23.4631 6.79143ZM21.9019 26.1157C20.9453 26.1157 20.1816 25.7686 19.6108 25.0743C19.0399 24.38 18.7545 23.4697 18.7545 22.3434C18.7545 21.1091 19.0399 19.9443 19.6108 18.8489C20.1816 17.738 20.9376 16.8509 21.8788 16.1874C22.8353 15.5086 23.8459 15.1691 24.9105 15.1691C25.2499 15.1691 25.4736 15.2386 25.5816 15.3774C25.705 15.5009 25.8053 15.7323 25.8825 16.0717C26.2065 16.01 26.5459 15.9791 26.9008 15.9791C27.6568 15.9791 28.0348 16.2491 28.0348 16.7891C28.0348 17.1131 27.919 17.8846 27.6876 19.1034C27.3328 20.8777 27.1553 22.112 27.1553 22.8063C27.1553 23.0377 27.2093 23.2229 27.3173 23.3617C27.4408 23.5006 27.595 23.57 27.7802 23.57C28.0733 23.57 28.4282 23.3849 28.8448 23.0146C29.2613 22.6289 29.8245 22.0117 30.5342 21.1631C30.7193 20.9471 30.9276 20.8391 31.159 20.8391C31.3596 20.8391 31.5139 20.9317 31.6219 21.1169C31.7453 21.302 31.807 21.5566 31.807 21.8806C31.807 22.4977 31.6605 22.976 31.3673 23.3154C30.7348 24.1023 30.0636 24.7657 29.3539 25.3057C28.6442 25.8457 27.9576 26.1157 27.2942 26.1157C26.785 26.1157 26.3145 25.946 25.8825 25.6066C25.4659 25.2517 25.1496 24.7734 24.9336 24.1717C24.1313 25.4677 23.1208 26.1157 21.9019 26.1157ZM22.735 23.7783C23.0745 23.7783 23.3985 23.5777 23.707 23.1766C24.0156 22.7754 24.2393 22.2431 24.3782 21.5797L25.2345 17.3214C24.5865 17.3369 23.9848 17.5837 23.4293 18.062C22.8893 18.5249 22.4573 19.142 22.1333 19.9134C21.8093 20.6849 21.6473 21.5026 21.6473 22.3666C21.6473 22.8449 21.7399 23.1997 21.925 23.4311C22.1256 23.6626 22.3956 23.7783 22.735 23.7783ZM31.5693 26.1157C30.983 26.1157 30.5664 25.8071 30.3196 25.19C30.0881 24.5729 29.9724 23.5854 29.9724 22.2277C29.9724 20.222 30.2579 18.3166 30.8287 16.5114C30.9676 16.064 31.1913 15.74 31.4999 15.5394C31.8239 15.3234 32.2713 15.2154 32.8421 15.2154C33.1507 15.2154 33.3667 15.254 33.4901 15.3311C33.6136 15.4083 33.6753 15.5549 33.6753 15.7709C33.6753 16.0177 33.5596 16.5731 33.3281 17.4371C33.1739 18.0543 33.0504 18.5943 32.9579 19.0571C32.8653 19.5046 32.7881 20.0677 32.7264 20.7466C33.143 19.5431 33.6367 18.5249 34.2076 17.6917C34.7939 16.8586 35.3879 16.2414 35.9896 15.8403C36.6067 15.4237 37.1853 15.2154 37.7253 15.2154C38.2653 15.2154 38.6433 15.3389 38.8593 15.5857C39.0907 15.8326 39.2064 16.2106 39.2064 16.7197C39.2064 17.2134 39.0599 18.1083 38.7667 19.4043C38.6433 19.9597 38.5584 20.3763 38.5121 20.654C39.2836 18.7563 40.1399 17.3754 41.081 16.5114C42.0221 15.6474 42.9016 15.2154 43.7193 15.2154C44.7221 15.2154 45.2236 15.7169 45.2236 16.7197C45.2236 17.3214 45.0539 18.4091 44.7144 19.9829C44.4213 21.3251 44.2747 22.2123 44.2747 22.6443C44.2747 23.2614 44.4984 23.57 44.9459 23.57C45.2544 23.57 45.617 23.3849 46.0336 23.0146C46.4656 22.6289 47.0364 22.0117 47.7461 21.1631C47.9313 20.9471 48.1396 20.8391 48.371 20.8391C48.5716 20.8391 48.7259 20.9317 48.8339 21.1169C48.9573 21.302 49.019 21.5566 49.019 21.8806C49.019 22.4977 48.8724 22.976 48.5793 23.3154C47.9159 24.1331 47.1984 24.8043 46.427 25.3289C45.671 25.8534 44.807 26.1157 43.835 26.1157C43.0481 26.1157 42.4541 25.892 42.053 25.4446C41.6519 24.9817 41.4513 24.3183 41.4513 23.4543C41.4513 23.0223 41.5593 22.2509 41.7753 21.14C41.9759 20.168 42.0761 19.4969 42.0761 19.1266C42.0761 18.8797 41.9913 18.7563 41.8216 18.7563C41.621 18.7563 41.3356 19.0186 40.9653 19.5431C40.595 20.0523 40.2247 20.7311 39.8544 21.5797C39.4841 22.4283 39.1833 23.3231 38.9519 24.2643C38.7821 25.0049 38.5816 25.4986 38.3501 25.7454C38.1341 25.9923 37.7793 26.1157 37.2856 26.1157C36.7764 26.1157 36.3907 25.8766 36.1284 25.3983C35.8816 24.9046 35.7581 24.3106 35.7581 23.6163C35.7581 23.03 35.8353 22.1814 35.9896 21.0706C36.113 20.0831 36.1747 19.4351 36.1747 19.1266C36.1747 18.8797 36.0899 18.7563 35.9201 18.7563C35.6887 18.7563 35.3956 19.034 35.0407 19.5894C34.6859 20.1449 34.3387 20.8546 33.9993 21.7186C33.6753 22.5826 33.413 23.4311 33.2124 24.2643C33.0427 24.9894 32.8421 25.4831 32.6107 25.7454C32.3947 25.9923 32.0476 26.1157 31.5693 26.1157ZM59.4597 18.8951C59.6603 18.8951 59.8145 18.9954 59.9225 19.196C60.0305 19.3966 60.0845 19.6511 60.0845 19.9597C60.0845 20.3454 60.0305 20.6463 59.9225 20.8623C59.8145 21.0629 59.6448 21.2017 59.4134 21.2789C58.4877 21.6029 57.4694 21.788 56.3585 21.8343C56.05 23.1149 55.4637 24.1486 54.5997 24.9354C53.7511 25.7223 52.81 26.1157 51.7763 26.1157C50.218 26.1157 49.084 25.5217 48.3743 24.3337C47.6645 23.1457 47.3097 21.4254 47.3097 19.1729C47.3097 17.1826 47.5565 15.0226 48.0503 12.6929C48.544 10.3477 49.2614 8.35743 50.2025 6.722C51.1591 5.07114 52.2931 4.24571 53.6045 4.24571C54.3143 4.24571 54.8851 4.55429 55.3171 5.17143C55.7491 5.77314 55.9651 6.56 55.9651 7.532C55.9651 8.79714 55.726 10.0546 55.2477 11.3043C54.7694 12.554 53.9748 13.8654 52.864 15.2386C53.8977 15.3157 54.7385 15.7477 55.3865 16.5346C56.0345 17.306 56.4203 18.2626 56.5437 19.4043C57.2688 19.358 58.1328 19.2037 59.1357 18.9414C59.2283 18.9106 59.3363 18.8951 59.4597 18.8951ZM53.0723 6.53686C52.7637 6.53686 52.4243 6.99971 52.054 7.92543C51.6991 8.83571 51.3674 10.0777 51.0588 11.6514C50.7503 13.2251 50.5188 14.9454 50.3645 16.8123C51.3828 14.9454 52.1928 13.3023 52.7945 11.8829C53.4117 10.448 53.7203 9.17514 53.7203 8.06429C53.7203 7.57057 53.6585 7.19257 53.5351 6.93028C53.4271 6.668 53.2728 6.53686 53.0723 6.53686ZM51.8688 23.6626C52.3471 23.6626 52.7714 23.462 53.1417 23.0609C53.512 22.6597 53.7588 22.0811 53.8823 21.3251C53.404 21.0011 53.0337 20.5769 52.7714 20.0523C52.5245 19.5277 52.4011 18.9723 52.4011 18.386C52.4011 18.17 52.432 17.8769 52.4937 17.5066H52.4243C51.7917 17.5066 51.2594 17.8229 50.8274 18.4554C50.4108 19.0726 50.2025 19.9057 50.2025 20.9549C50.2025 21.8343 50.3645 22.5054 50.6885 22.9683C51.028 23.4311 51.4214 23.6626 51.8688 23.6626ZM69.8892 18.8951C70.0897 18.8951 70.244 18.9954 70.352 19.196C70.46 19.3966 70.514 19.6511 70.514 19.9597C70.514 20.7003 70.2903 21.14 69.8429 21.2789C68.9172 21.6029 67.8989 21.788 66.788 21.8343C66.4949 23.1303 65.9163 24.1717 65.0523 24.9586C64.1883 25.73 63.2086 26.1157 62.1132 26.1157C61.1874 26.1157 60.3929 25.892 59.7294 25.4446C59.0814 24.9971 58.5877 24.4031 58.2483 23.6626C57.9089 22.922 57.7392 22.1197 57.7392 21.2557C57.7392 20.0831 57.9629 19.0417 58.4103 18.1314C58.8577 17.2057 59.4749 16.4883 60.2617 15.9791C61.0486 15.4546 61.9203 15.1923 62.8769 15.1923C64.0494 15.1923 64.9906 15.6011 65.7003 16.4189C66.4254 17.2211 66.8497 18.2163 66.9732 19.4043C67.6983 19.358 68.5623 19.2037 69.5652 18.9414C69.6886 18.9106 69.7966 18.8951 69.8892 18.8951ZM62.2983 23.6626C62.792 23.6626 63.2163 23.462 63.5712 23.0609C63.9414 22.6597 64.1883 22.0811 64.3117 21.3251C63.8334 21.0011 63.4632 20.5769 63.2009 20.0523C62.954 19.5277 62.8306 18.9723 62.8306 18.386C62.8306 18.1391 62.8537 17.8923 62.9 17.6454H62.7843C62.1672 17.6454 61.6503 17.9463 61.2337 18.548C60.8326 19.1343 60.632 19.9674 60.632 21.0474C60.632 21.896 60.794 22.544 61.118 22.9914C61.4574 23.4389 61.8509 23.6626 62.2983 23.6626ZM77.2989 20.8391C77.4994 20.8391 77.6537 20.9317 77.7617 21.1169C77.8851 21.302 77.9469 21.5566 77.9469 21.8806C77.9469 22.4977 77.8003 22.976 77.5071 23.3154C76.8437 24.1331 76.1186 24.8043 75.3317 25.3289C74.5603 25.8534 73.6809 26.1157 72.6934 26.1157C71.3357 26.1157 70.3251 25.4986 69.6617 24.2643C69.0137 23.03 68.6897 21.4331 68.6897 19.4737C68.6897 17.5914 68.9289 15.4469 69.4071 13.04C69.9009 10.6331 70.6183 8.56571 71.5594 6.83771C72.516 5.10971 73.65 4.24571 74.9614 4.24571C75.702 4.24571 76.2806 4.59286 76.6971 5.28714C77.1291 5.966 77.3451 6.94571 77.3451 8.22629C77.3451 10.0623 76.836 12.1914 75.8177 14.6137C74.7994 17.036 73.4186 19.4351 71.6751 21.8111C71.7831 22.4437 71.9606 22.8989 72.2074 23.1766C72.4543 23.4389 72.7783 23.57 73.1794 23.57C73.812 23.57 74.3674 23.3926 74.8457 23.0377C75.324 22.6674 75.9334 22.0426 76.674 21.1631C76.8591 20.9471 77.0674 20.8391 77.2989 20.8391ZM74.4523 6.53686C74.0974 6.53686 73.6963 7.17714 73.2489 8.45771C72.8014 9.73829 72.408 11.3274 72.0686 13.2251C71.7291 15.1229 71.544 16.9434 71.5131 18.6869C72.6086 16.8817 73.4803 15.0766 74.1283 13.2714C74.7763 11.4509 75.1003 9.79229 75.1003 8.29571C75.1003 7.12314 74.8843 6.53686 74.4523 6.53686ZM78.5117 26.1157C77.6323 26.1157 76.9148 25.7686 76.3594 25.0743C75.8194 24.38 75.5494 23.4697 75.5494 22.3434C75.5494 21.1091 75.8348 19.9443 76.4057 18.8489C76.9765 17.738 77.7325 16.8509 78.6737 16.1874C79.6303 15.5086 80.6408 15.1691 81.7054 15.1691C82.0448 15.1691 82.2685 15.2386 82.3765 15.3774C82.5 15.5009 82.6003 15.7323 82.6774 16.0717C82.9705 16.01 83.2945 15.9791 83.6494 15.9791C84.0197 15.9791 84.3051 16.0717 84.5057 16.2569C84.7063 16.442 84.8065 16.7043 84.8065 17.0437C84.8065 17.3986 84.7294 18.0157 84.5751 18.8951C84.4054 19.8363 84.2743 20.7389 84.1817 21.6029C84.0891 22.4514 84.0428 23.408 84.0428 24.4726C84.0428 25.0589 83.9194 25.4831 83.6725 25.7454C83.4411 25.9923 83.0554 26.1157 82.5154 26.1157C81.9908 26.1157 81.5974 25.9923 81.3351 25.7454C81.0883 25.4831 80.9648 25.0666 80.9648 24.4957L80.988 24.1254C80.5097 25.4523 79.6843 26.1157 78.5117 26.1157ZM79.4143 23.7783C79.8463 23.7783 80.2397 23.4774 80.5945 22.8757C80.9494 22.274 81.2657 21.2017 81.5434 19.6589L81.9831 17.3214C81.3505 17.3369 80.7643 17.5837 80.2243 18.062C79.6843 18.5249 79.2523 19.142 78.9283 19.9134C78.6043 20.6849 78.4423 21.5026 78.4423 22.3666C78.4423 22.8294 78.5271 23.1843 78.6968 23.4311C78.882 23.6626 79.1211 23.7783 79.4143 23.7783Z" fill="#EEEEEE" fill-opacity="0.3"/>
</svg>
