<svg width="90" height="30" viewBox="0 0 90 30" fill="none" xmlns="http://www.w3.org/2000/svg">
<rect width="90" height="30" fill="#EEEEEE"/>
<rect x="0.5" y="0.5" width="89" height="29" fill="#FFCB36" stroke="#374051"/>
<line y1="9.50001" x2="90" y2="9.50001" stroke="#374051"/>
<line y1="19.837" x2="90" y2="19.837" stroke="#374051"/>
<line x1="8.5" y1="30" x2="8.5" y2="0.637707" stroke="#374051"/>
<line x1="18.5" y1="29.9723" x2="18.5" y2="0.609997" stroke="#374051"/>
<line x1="28.5" y1="30" x2="28.5" y2="0.637707" stroke="#374051"/>
<line x1="38.5" y1="30" x2="38.5" y2="0.637707" stroke="#374051"/>
<line x1="48.5" y1="30" x2="48.5" y2="0.637707" stroke="#374051"/>
<line x1="58.5" y1="30" x2="58.5" y2="0.637707" stroke="#374051"/>
<line x1="68.5" y1="30" x2="68.5" y2="0.637707" stroke="#374051"/>
<line x1="78.5" y1="30" x2="78.5" y2="0.637707" stroke="#374051"/>
<line y1="-0.5" x2="12.7279" y2="-0.5" transform="matrix(0.707106 -0.707108 0.707106 0.707108 29 29)" stroke="#374051"/>
<line y1="-0.5" x2="12.7279" y2="-0.5" transform="matrix(-0.707106 -0.707108 0.707106 -0.707108 37.9999 29)" stroke="#374051"/>
<line y1="-0.5" x2="12.7279" y2="-0.5" transform="matrix(0.707106 -0.707108 0.707106 0.707108 10 10)" stroke="#374051"/>
<line y1="-0.5" x2="12.7279" y2="-0.5" transform="matrix(-0.707106 -0.707108 0.707106 -0.707108 18.9999 10)" stroke="#374051"/>
<line y1="-0.5" x2="12.7279" y2="-0.5" transform="matrix(0.707106 -0.707108 0.707106 0.707108 70 19)" stroke="#374051"/>
<line y1="-0.5" x2="12.7279" y2="-0.5" transform="matrix(-0.707106 -0.707108 0.707106 -0.707108 78.9999 19)" stroke="#374051"/>
</svg>
